PathFileType  4	(X/Y/Z) C:\Users\antoi\Documents\MyRepositories\mobilecap\ResultsAnalysis
DataRate	CameraRate	NumFrames	NumMarkers	Units	OrigDataRate	OrigDataStartFrame	OrigNumFrames
100.0	100.0	5	51	mm	100.0	120	137
Frame#	Time	r_knee			r_shank_antsup			r_ankle			r_calc			r_5meta			r_toe			L_knee			L_shank_antsup			L_ankle			L_calc			L_5meta			L_toe			r_sh2			r_sh3			r_sh4			L_sh2			L_sh3			r_thigh1			r_thigh2			r_thigh3			r_thigh4			r_thigh5			L_thigh1			L_thigh2			L_thigh3			L_thigh4			r.ASIS			r.PSIS			L.ASIS			L.PSIS			C7			R_Shoulder			L_Shoulder			R_Sternum			L_Sternum			R_humerus			R_elbow_med			R_elbow_lat			R_forearm			R_wrist_radius			R_wrist_ulna			L_humerus			L_elbow_med			L_elbow_lat			L_forearm			L_wrist_radius			L_wrist_ulna			R_HJC			L_HJC			R_HJC_reg			L_HJC_reg			
		X1	Y1	Z1	X2	Y2	Z2	X3	Y3	Z3	X4	Y4	Z4	X5	Y5	Z5	X6	Y6	Z6	X7	Y7	Z7	X8	Y8	Z8	X9	Y9	Z9	X10	Y10	Z10	X11	Y11	Z11	X12	Y12	Z12	X13	Y13	Z13	X14	Y14	Z14	X15	Y15	Z15	X16	Y16	Z16	X17	Y17	Z17	X18	Y18	Z18	X19	Y19	Z19	X20	Y20	Z20	X21	Y21	Z21	X22	Y22	Z22	X23	Y23	Z23	X24	Y24	Z24	X25	Y25	Z25	X26	Y26	Z26	X27	Y27	Z27	X28	Y28	Z28	X29	Y29	Z29	X30	Y30	Z30	X31	Y31	Z31	X32	Y32	Z32	X33	Y33	Z33	X34	Y34	Z34	X35	Y35	Z35	X36	Y36	Z36	X37	Y37	Z37	X38	Y38	Z38	X39	Y39	Z39	X40	Y40	Z40	X41	Y41	Z41	X42	Y42	Z42	X43	Y43	Z43	X44	Y44	Z44	X45	Y45	Z45	X46	Y46	Z46	X47	Y47	Z47	X48	Y48	Z48	X49	Y49	Z49	X50	Y50	Z50	X51	Y51	Z51	

120	1.19000000	1430.14920	537.34613	-134.93954	1489.16102	456.08886	-145.74147	1508.02819	117.26283	-173.01688	1435.18733	71.94747	-219.53711	1634.34521	49.26207	-137.23831	1688.01726	86.66403	-199.75927	1200.59478	527.75392	-463.19400	1153.28461	445.10590	-483.26202	942.57392	190.56544	-410.22985	850.53296	175.59977	-345.97454	994.51335	61.24883	-449.25282	1064.16759	60.59289	-394.23329	1500.89820	346.39886	-123.27087	1423.18591	455.50661	-106.72339	1418.67624	339.72540	-104.66916	1083.62848	501.00091	-464.86954	1021.12919	396.68102	-453.68141	1407.12323	865.54724	-116.23500	1439.65049	759.81481	-120.28296	1391.85048	719.37304	-92.09472	1300.87590	830.57431	-103.90129	1338.67853	722.19880	-111.33084	1334.06604	807.45822	-469.06487	1321.55575	667.31560	-460.94760	1224.26410	814.99719	-484.75476	1207.80288	678.25090	-479.03356	1364.52552	1067.69279	-158.55590	1185.56688	1055.62121	-227.87918	1374.07147	1049.08154	-412.22349	1187.37524	1056.61218	-337.79048	1286.04078	1603.57870	-353.06926	1324.83326	1550.37375	-168.53010	1344.43139	1506.58273	-505.84457	1386.29940	1501.48232	-300.17784	1389.74253	1491.57727	-354.78623	1285.95865	1397.84643	-90.99548	1170.68810	1216.65345	-142.23242	1170.32221	1237.90613	-60.20783	1177.63341	1070.11999	-11.88913	1196.62888	973.91674	-5.92482	1153.64746	990.73918	7.36153	1356.00776	1392.21954	-590.08568	1369.03278	1143.72607	-576.65346	1385.60985	1177.65008	-653.24676	1455.52112	1151.45990	-672.59737	1599.54087	1046.38228	-686.49544	1573.07899	1019.54692	-704.14450	1299.26204	942.17359	-172.40363	1296.98287	935.52466	-379.24996	1320.30261	966.74748	-195.72588	1323.06460	968.26639	-363.67597	
121	1.20000000	1439.02843	538.02876	-132.54295	1496.91671	455.64196	-143.98764	1509.43697	116.55927	-172.58036	1435.68131	72.01055	-219.65144	1634.67899	47.93230	-136.74322	1688.92410	84.13933	-199.57146	1225.43769	526.37994	-462.99866	1175.00967	446.37423	-482.86360	956.49131	200.00569	-409.80162	864.93397	192.02408	-344.63371	998.44802	66.37298	-448.50161	1067.97707	60.91557	-393.96674	1507.10079	345.76006	-121.86817	1431.40297	456.04571	-104.26870	1425.08866	340.38510	-102.19880	1107.72399	504.50885	-463.25244	1041.60507	402.58832	-451.92940	1420.18956	866.86730	-113.69835	1451.41160	760.73084	-117.67674	1403.23345	720.95599	-89.20081	1313.55140	833.21095	-101.14470	1349.96330	724.41203	-108.38322	1353.36588	807.62013	-466.74417	1343.63803	667.30478	-459.60693	1243.76084	813.06117	-483.28467	1229.93460	676.08098	-478.37769	1378.87565	1069.92414	-156.86859	1199.92117	1057.74485	-226.15504	1388.67768	1049.61938	-410.09814	1201.93670	1057.52554	-336.15028	1297.91244	1605.12220	-351.67669	1337.80476	1552.27210	-167.27703	1356.08259	1508.58328	-504.70202	1398.90822	1503.63575	-299.11817	1402.16289	1493.76010	-353.70624	1300.04037	1399.53630	-89.67948	1185.54988	1217.82991	-140.69259	1185.74841	1238.68708	-58.61377	1194.85238	1070.79593	-10.87551	1214.78027	974.73605	-5.28435	1171.67582	991.14405	8.19927	1366.91961	1393.71084	-588.69571	1378.83995	1145.13185	-573.77819	1394.89810	1178.47615	-650.75176	1464.71708	1152.03951	-670.32369	1608.57001	1046.79383	-684.22587	1582.01226	1019.83641	-701.55371	1313.50912	944.44225	-169.73954	1311.48597	936.26732	-376.52774	1334.26417	969.38600	-193.01173	1337.33554	969.05813	-360.76994	
122	1.21000000	1447.68796	538.93987	-129.94970	1504.26498	455.36629	-142.00099	1510.39496	116.03585	-172.02101	1435.91823	72.00788	-219.73002	1634.74074	47.13541	-136.14740	1689.47049	82.38185	-199.25308	1251.54140	524.81914	-462.75094	1198.20834	447.67756	-482.33079	972.36603	209.81406	-409.27121	882.08976	209.55567	-343.03266	1003.30761	72.77559	-447.60435	1072.51866	61.94925	-393.78889	1512.77789	345.26765	-120.31031	1439.30822	456.79780	-101.58940	1431.04423	341.21658	-99.45606	1133.42377	507.93807	-461.54415	1063.78568	408.48792	-450.03006	1433.02406	868.50379	-111.07350	1463.06060	762.04339	-115.13142	1414.60628	722.91223	-86.37697	1326.04957	836.05621	-98.16408	1361.13971	726.77932	-105.34492	1373.06092	807.86184	-464.43103	1366.67177	667.41074	-458.39998	1263.74153	810.81633	-482.12258	1253.07090	673.62637	-478.07429	1392.79697	1072.30058	-154.95113	1213.92790	1059.84985	-224.62780	1403.11922	1050.10004	-407.74448	1216.22540	1058.39036	-334.71474	1309.80115	1606.64665	-350.41788	1350.94023	1554.17482	-166.19063	1367.68389	1510.48875	-503.70828	1411.52051	1505.73911	-298.25969	1414.55762	1495.88220	-352.79670	1314.49822	1401.19851	-88.51683	1200.69131	1218.99367	-138.99070	1201.68252	1239.48204	-56.85062	1212.64836	1071.51869	-9.70522	1233.48935	975.56876	-4.45846	1190.31599	991.61172	9.24446	1377.65242	1395.03716	-587.37885	1388.23254	1146.39262	-570.75371	1403.73638	1179.06489	-648.13508	1473.43960	1152.30504	-667.95002	1617.08378	1046.81101	-681.78241	1590.37703	1019.71012	-698.76285	1327.30705	946.81154	-166.95378	1325.87704	936.96273	-373.66464	1347.93589	972.04914	-190.07759	1351.42998	969.83497	-357.65031	
123	1.22000000	1456.06613	539.97469	-127.32113	1511.18250	455.19545	-139.93996	1511.03781	115.61895	-171.42780	1435.99755	72.01446	-219.73538	1634.66140	46.67000	-135.58386	1689.77653	81.19039	-198.92229	1278.61833	523.16223	-462.42599	1222.83001	448.94930	-481.68443	990.12597	219.82005	-408.65618	902.01376	227.77520	-341.24339	1009.39334	80.49794	-446.61937	1078.03755	63.84943	-393.74396	1517.96106	344.86379	-118.73069	1446.84579	457.65921	-98.88249	1436.57796	342.13220	-96.64161	1160.59115	511.22065	-459.86781	1087.57295	414.26029	-448.11400	1445.63789	870.30535	-108.35364	1474.54284	763.57157	-112.64532	1425.80960	725.06881	-83.76469	1338.30511	839.00016	-95.11881	1372.13385	729.21839	-102.36546	1392.87516	808.22119	-462.21167	1390.33416	667.69610	-457.30211	1283.91791	808.33622	-481.21331	1276.88592	670.98513	-478.04343	1406.27810	1074.77653	-152.83577	1227.57370	1061.83876	-223.31593	1417.31714	1050.51213	-405.23096	1230.18589	1059.13072	-333.49785	1321.70046	1608.10634	-349.31837	1364.17815	1556.03935	-165.29010	1379.25263	1512.23692	-502.86941	1424.10570	1507.73590	-297.60829	1426.91022	1497.88680	-352.06222	1329.29915	1402.79782	-87.53257	1216.10306	1220.07741	-137.14717	1218.09279	1240.24639	-54.94803	1231.02127	1072.24999	-8.39719	1252.78061	976.39215	-3.46331	1209.56131	992.09593	10.48540	1388.22845	1396.14635	-586.15184	1397.22771	1147.46426	-567.61841	1412.15085	1179.38525	-645.42711	1481.72577	1152.23009	-665.49555	1625.13162	1046.41474	-679.17891	1598.23196	1019.15626	-695.78754	1340.67494	949.21434	-164.10252	1340.12653	937.57392	-370.71533	1361.33733	974.66676	-186.96053	1365.30376	970.55851	-354.37595	
124	1.23000000	1464.08653	541.01484	-124.80464	1517.66407	455.05504	-137.95730	1511.49143	115.26193	-170.87382	1436.00190	72.08542	-219.65756	1634.53755	46.37571	-135.12161	1689.94859	80.36336	-198.64492	1306.38650	521.53596	-462.01553	1248.75920	450.12213	-480.95334	1009.59755	229.83686	-407.93091	924.48391	246.09192	-339.31741	1017.09794	89.43018	-445.59500	1084.88990	66.73250	-393.81056	1522.71007	344.48958	-117.25281	1453.95511	458.51353	-96.33116	1441.72519	343.04230	-93.96901	1189.01864	514.29356	-458.33818	1112.80168	419.79444	-446.30236	1458.01014	872.09157	-105.56089	1485.76402	765.10430	-110.19846	1436.64900	727.23367	-81.43019	1350.24928	841.92145	-92.15826	1382.84679	731.63849	-99.55413	1412.54575	808.73929	-460.14407	1414.26340	668.22997	-456.25549	1304.02075	805.72960	-480.43882	1301.01219	668.29127	-478.15405	1419.36068	1077.27912	-150.58518	1240.87885	1063.64063	-222.20156	1431.20795	1050.86516	-402.65365	1243.78648	1059.69385	-332.47210	1333.60060	1609.46700	-348.40084	1377.46799	1557.83611	-164.59102	1390.79559	1513.77655	-502.19038	1436.63971	1509.58167	-297.17076	1439.20219	1499.72693	-351.51229	1344.40054	1404.31939	-86.74605	1231.76977	1221.03490	-135.18105	1234.92821	1240.95352	-52.94195	1249.96764	1072.97170	-6.97593	1272.66815	977.20251	-2.31495	1229.40447	992.57180	11.90765	1398.66537	1396.99617	-585.02863	1405.83907	1148.31045	-564.40451	1420.16206	1179.41253	-642.64818	1489.61010	1151.79760	-662.97002	1632.75543	1045.58743	-676.42440	1605.62768	1018.16570	-692.63687	1353.67625	951.57271	-161.25901	1354.19769	938.08592	-367.75474	1374.50163	977.18641	-183.72271	1378.91172	971.20217	-351.02509	
